<svg viewBox="0 0 308 72" fill="none" xmlns="http://www.w3.org/2000/svg">
    <g clip-path="url(#clip0)">
        <path d="M108.374 36.384C108.374 39.5 107.909 42.3153 106.98 44.83C106.051 47.3447 104.739 49.4767 103.044 51.226C101.404 52.9753 99.3813 54.342 96.9759 55.326C94.5706 56.2553 91.892 56.72 88.94 56.72C85.988 56.72 83.3093 56.2553 80.904 55.326C78.4986 54.342 76.4486 52.9753 74.7539 51.226C73.1139 49.4767 71.8293 47.3447 70.8999 44.83C69.9706 42.3153 69.5059 39.5 69.5059 36.384C69.5059 33.268 69.9706 30.4527 70.8999 27.938C71.8293 25.4233 73.1413 23.2913 74.8359 21.542C76.5306 19.7927 78.5806 18.4533 80.986 17.524C83.3913 16.54 86.0426 16.048 88.94 16.048C91.8373 16.048 94.4886 16.54 96.894 17.524C99.2993 18.4533 101.349 19.82 103.044 21.624C104.739 23.3733 106.051 25.5053 106.98 28.02C107.909 30.48 108.374 33.268 108.374 36.384ZM88.94 22.936C85.66 22.936 83.0633 24.1113 81.1499 26.462C79.2366 28.8127 78.2799 32.12 78.2799 36.384C78.2799 40.648 79.2093 43.9553 81.0679 46.306C82.9266 48.602 85.5506 49.75 88.94 49.75C92.3293 49.75 94.9533 48.602 96.8119 46.306C98.6706 43.9553 99.6 40.648 99.6 36.384C99.6 32.1747 98.6433 28.8947 96.73 26.544C94.8713 24.1387 92.2746 22.936 88.94 22.936ZM120.881 17.278C121.264 17.1687 121.81 17.0593 122.521 16.95C123.232 16.786 123.997 16.704 124.817 16.704C126.402 16.704 127.55 17.0047 128.261 17.606C129.026 18.2073 129.409 19.246 129.409 20.722V40.976C129.409 44.1467 130.229 46.4153 131.869 47.782C133.564 49.094 135.887 49.75 138.839 49.75C140.752 49.75 142.365 49.5587 143.677 49.176C144.989 48.7933 146.028 48.3833 146.793 47.946V17.278C147.23 17.1687 147.777 17.0593 148.433 16.95C149.144 16.786 149.909 16.704 150.729 16.704C152.314 16.704 153.49 17.0047 154.255 17.606C155.02 18.2073 155.403 19.246 155.403 20.722V48.356C155.403 49.5587 155.212 50.5427 154.829 51.308C154.446 52.0733 153.681 52.8113 152.533 53.522C151.112 54.342 149.226 55.08 146.875 55.736C144.579 56.392 141.873 56.72 138.757 56.72C133.126 56.72 128.726 55.49 125.555 53.03C122.439 50.5153 120.881 46.552 120.881 41.14V17.278ZM178.576 44.338C178.576 46.306 179.15 47.7 180.298 48.52C181.446 49.34 183.058 49.75 185.136 49.75C186.065 49.75 187.049 49.6133 188.088 49.34C189.126 49.0667 190.028 48.7387 190.794 48.356C191.176 48.7933 191.504 49.2853 191.778 49.832C192.106 50.3787 192.27 51.0347 192.27 51.8C192.27 53.2213 191.532 54.3967 190.056 55.326C188.634 56.2553 186.448 56.72 183.496 56.72C179.396 56.72 176.116 55.818 173.656 54.014C171.25 52.1553 170.048 49.1213 170.048 44.912V6.61799C170.43 6.50866 170.977 6.37199 171.688 6.20799C172.398 6.04399 173.164 5.96199 173.984 5.96199C175.569 5.96199 176.717 6.26266 177.428 6.86399C178.193 7.46532 178.576 8.47666 178.576 9.89799V18.016H191.286C191.504 18.344 191.696 18.8087 191.86 19.41C192.078 20.0113 192.188 20.64 192.188 21.296C192.188 23.6467 191.176 24.822 189.154 24.822H178.576V44.338ZM209.244 56.064C207.658 56.064 206.483 55.7633 205.718 55.162C204.952 54.5607 204.57 53.5493 204.57 52.128V2.35399C204.952 2.24466 205.499 2.10799 206.21 1.94399C206.92 1.77999 207.686 1.69799 208.506 1.69799C210.091 1.69799 211.266 1.99866 212.032 2.59999C212.797 3.20132 213.18 4.21265 213.18 5.63399V55.408C212.742 55.572 212.168 55.7087 211.458 55.818C210.802 55.982 210.064 56.064 209.244 56.064ZM242.688 50.078C244.601 50.078 246.269 49.8867 247.69 49.504C249.111 49.1213 250.123 48.7113 250.724 48.274V37.86L241.786 38.762C239.271 39.0353 237.385 39.6093 236.128 40.484C234.871 41.304 234.242 42.5887 234.242 44.338C234.242 46.142 234.925 47.5633 236.292 48.602C237.659 49.586 239.791 50.078 242.688 50.078ZM242.524 16.048C247.608 16.048 251.653 17.1687 254.66 19.41C257.667 21.5967 259.17 25.068 259.17 29.824V48.93C259.17 50.1873 258.869 51.1713 258.268 51.882C257.721 52.538 256.956 53.1667 255.972 53.768C254.551 54.588 252.719 55.2987 250.478 55.9C248.237 56.5013 245.64 56.802 242.688 56.802C237.385 56.802 233.231 55.7633 230.224 53.686C227.272 51.6087 225.796 48.5473 225.796 44.502C225.796 40.894 226.944 38.1333 229.24 36.22C231.591 34.3067 234.953 33.1313 239.326 32.694L250.724 31.546V29.742C250.724 27.3367 249.931 25.5873 248.346 24.494C246.815 23.4007 244.656 22.854 241.868 22.854C239.681 22.854 237.577 23.1547 235.554 23.756C233.531 24.3573 231.727 25.0407 230.142 25.806C229.595 25.3687 229.131 24.8493 228.748 24.248C228.365 23.592 228.174 22.8813 228.174 22.116C228.174 21.1867 228.393 20.4213 228.83 19.82C229.322 19.2187 230.06 18.6993 231.044 18.262C232.575 17.4967 234.324 16.95 236.292 16.622C238.26 16.2393 240.337 16.048 242.524 16.048ZM279.754 46.634C278.387 43.9553 276.72 40.156 274.752 35.236C272.784 30.316 270.871 24.74 269.012 18.508C269.504 17.9067 270.16 17.4147 270.98 17.032C271.8 16.5947 272.675 16.376 273.604 16.376C274.807 16.376 275.791 16.6767 276.556 17.278C277.321 17.8247 277.95 18.8087 278.442 20.23C279.918 24.658 281.449 29.0313 283.034 33.35C284.619 37.614 286.369 42.042 288.282 46.634H288.61C289.43 44.8847 290.25 42.8347 291.07 40.484C291.945 38.1333 292.792 35.646 293.612 33.022C294.432 30.398 295.197 27.7467 295.908 25.068C296.619 22.3347 297.247 19.738 297.794 17.278C298.341 17.0047 298.887 16.786 299.434 16.622C300.035 16.458 300.719 16.376 301.484 16.376C302.687 16.376 303.698 16.6767 304.518 17.278C305.338 17.8247 305.748 18.6993 305.748 19.902C305.748 21.3233 305.365 23.51 304.6 26.462C303.889 29.3593 302.933 32.5847 301.73 36.138C300.527 39.6367 299.161 43.19 297.63 46.798C296.099 50.406 294.569 53.604 293.038 56.392C290.305 61.2027 287.817 64.8653 285.576 67.38C283.389 69.8947 281.312 71.152 279.344 71.152C277.813 71.152 276.583 70.7147 275.654 69.84C274.779 69.02 274.233 67.9813 274.014 66.724C274.889 65.9587 275.845 65.0293 276.884 63.936C277.923 62.8427 278.961 61.6673 280 60.41C281.039 59.1527 282.023 57.8407 282.952 56.474C283.881 55.162 284.674 53.8773 285.33 52.62C284.401 52.3467 283.499 51.8273 282.624 51.062C281.749 50.242 280.793 48.766 279.754 46.634Z" fill="#2B4964"/>
        <path fill-rule="evenodd" clip-rule="evenodd" d="M8.2161 15.5294H50.5423V16.9412C50.5423 20.8397 47.3839 24 43.4879 24H1.16174V22.5882C1.16174 18.6898 4.32009 15.5294 8.2161 15.5294Z" fill="#4F46E5"/>
        <path fill-rule="evenodd" clip-rule="evenodd" d="M26.5575 38.1177H50.5423V39.5294C50.5423 43.4279 47.384 46.5882 43.4879 46.5882H19.5031V45.1765C19.5031 41.278 22.6615 38.1177 26.5575 38.1177Z" fill="#4F46E5"/>
    </g>
    <defs>
        <clipPath id="clip0">
            <rect width="308" height="72" fill="white"/>
        </clipPath>
    </defs>
</svg>
